<svg width="101" height="97" viewBox="0 0 101 97" fill="none" xmlns="http://www.w3.org/2000/svg">
<path d="M43.5005 6.57674L48.9332 14.5524C46.4902 15.9971 43.5067 18.489 39.9827 22.0283C36.6709 25.4648 33.5372 29.4044 30.5815 33.8469C27.6258 38.2894 25.4847 42.9269 24.158 47.7592C25.3694 47.8273 26.3961 47.9195 27.238 48.0357C28.292 48.0491 29.2913 48.22 30.2358 48.5483C33.6993 49.7521 36.2013 51.9451 37.742 55.1273C39.4948 58.2067 39.6599 61.793 38.2372 65.8862C36.6504 70.4516 34.0264 73.6861 30.3652 75.5896C26.7587 77.3357 22.9089 77.4974 18.8157 76.0748C12.8335 73.9955 9.03407 70.2047 7.41759 64.7023C5.80111 59.2 6.08722 53.3002 8.27592 47.0031C9.80801 42.5951 12.24 37.8823 15.572 32.8648C19.1161 27.7445 23.29 22.8431 28.0935 18.1606C32.9518 13.3207 38.0874 9.45938 43.5005 6.57674ZM86.9508 21.6788L92.3835 29.6544C89.9405 31.0991 86.957 33.5911 83.433 37.1303C80.1212 40.5669 76.9875 44.5064 74.0318 48.9489C71.0761 53.3915 68.935 58.0289 67.6083 62.8612C68.8197 62.9294 69.8464 63.0215 70.6883 63.1377C71.7423 63.1511 72.7415 63.322 73.6861 63.6503C77.1495 64.8541 79.6516 67.0471 81.1923 70.2293C82.9451 73.3088 83.1102 76.8951 81.6875 80.9882C80.1007 85.5537 77.4767 88.7881 73.8155 90.6916C70.209 92.4377 66.3592 92.5994 62.266 91.1768C56.2838 89.0975 52.4844 85.3067 50.8679 79.8044C49.2514 74.302 49.5375 68.4023 51.7262 62.1051C53.2583 57.6971 55.6903 52.9843 59.0223 47.9668C62.5664 42.8465 66.7403 37.9452 71.5438 33.2626C76.4021 28.4227 81.5377 24.5614 86.9508 21.6788Z" fill="url(#paint0_linear_1_51)"/>
<defs>
<linearGradient id="paint0_linear_1_51" x1="66.3447" y1="3.8336" x2="-266.458" y2="326.802" gradientUnits="userSpaceOnUse">
<stop stop-color="#FCFCFC" stop-opacity="0"/>
<stop offset="1" stop-color="white" stop-opacity="0.5"/>
</linearGradient>
</defs>
</svg>
